<?xml version="1.0" encoding="iso-8859-1"?>
<!-- Generator: Adobe Illustrator 19.0.0, SVG Export Plug-In . SVG Version: 6.00 Build 0)  -->
<svg xmlns="http://www.w3.org/2000/svg" xmlns:xlink="http://www.w3.org/1999/xlink" version="1.1" id="Layer_1" x="0px" y="0px" viewBox="0 0 512.002 512.002" style="enable-background:new 0 0 512.002 512.002;" xml:space="preserve" width="512px" height="512px">
<g>
	<g>
		<path d="M492.47,19.515C479.314,6.328,461.189,0,441.064,0c-32.344,0-69.845,16.344-100.313,46.813    c-46.43,46.438-60.039,109.172-33.055,145.109c-36.023,36.719-39.281,70.141-42.164,99.812    c-2.617,26.906-4.875,50.125-32.304,73.298c-20.898,17.641-45.602,19.641-74.204,21.938c-25,2.016-53.328,4.312-80.719,18.859    c-30.953,16.438-56.227,46.203-77.281,90.969c-0.648,1.391-1.023,2.923-1.023,4.548c0,5.891,4.773,10.656,10.664,10.656    c4.266,0,7.938-2.5,9.648-6.125c42.188-89.719,92.133-93.75,140.422-97.641c29.562-2.375,60.133-4.844,86.258-26.906    c34.054-28.767,36.953-58.642,39.765-87.517c2.782-28.687,5.438-55.859,36.485-87.281c11.797,7.766,26.102,11.531,41.633,11.531    c32.345,0,69.845-16.328,100.313-46.797C514.627,121.828,526.845,53.891,492.47,19.515z M489.284,85.953    c-2.125,11.688-6.438,23.578-12.875,35.359c-6.812,12.484-15.656,24.219-26.312,34.859c-12.906,12.922-27.875,23.484-43.25,30.531    c-14.344,6.562-28.845,10.031-41.97,10.031c-10.531,0-25.375-2.297-36.336-13.266c-11.532-11.528-15.751-29.763-11.876-51.357    c2.094-11.672,6.422-23.562,12.844-35.344c6.805-12.5,15.68-24.219,26.305-34.875c12.938-12.922,27.875-23.469,43.282-30.517    c14.312-6.562,28.844-10.031,41.969-10.031c10.531,0,25.375,2.297,36.344,13.25C488.94,46.141,493.159,64.375,489.284,85.953z" fill="#FFFFFF"/>
	</g>
</g>
<g>
	<g>
		<path d="M502.064,265.939c-6.719-6.719-15.938-9.938-26.188-9.938c-16.5,0-35.594,8.328-51.094,23.844    c-21.312,21.312-29.062,49.375-20.312,68.094c-22.626,22.142-25.001,42.829-27.001,59.938c-1.5,13.141-2.5,21.812-11.719,29.594    c-8.156,6.875-18.219,7.266-30.992,7.75c-12.094,0.453-25.797,0.969-39.531,7.797c-15.469,7.688-27.969,22-38.211,43.781    c-0.648,1.375-1.015,2.922-1.015,4.547c0,5.891,4.773,10.656,10.664,10.656c4.266,0,7.945-2.5,9.656-6.125    c17.75-37.766,36.984-38.5,59.25-39.344c14.148-0.531,30.18-1.141,43.93-12.766c15.688-13.234,17.532-29.281,19.188-43.453    c1.781-15.516,3.5-30.328,20.688-47.109c5.25,2.594,11.25,3.875,17.688,3.875c16.469,0,35.562-8.328,51.094-23.845    C513.346,318.048,519.564,283.454,502.064,265.939z M490.127,297.939c-1.844,10.203-8.062,21.203-17.062,30.203    c-10.844,10.859-24.625,17.594-36,17.594c-3.375,0-8.062-0.641-11.125-3.688c-4.719-4.734-3.75-13.391-3.125-16.906    c1.844-10.203,8.031-21.219,17.031-30.219c10.875-10.844,24.656-17.578,36.031-17.578c3.375,0,8.062,0.641,11.094,3.688    C491.721,285.767,490.752,294.423,490.127,297.939z" fill="#FFFFFF"/>
	</g>
</g>
<g>
	<g>
		<path d="M246.063,73.938c-6.718-6.703-15.944-9.937-26.194-9.937c-16.477,0-35.57,8.328-51.094,23.844    c-23.938,23.938-30.727,56.375-16.305,74.562c-6.375,9.875-15.266,13.219-26.5,17.422c-13.844,5.172-31.078,11.625-41.891,33.516    c-6.227,12.625-6.086,23.828-5.977,32.828c0.125,9.906,0.195,15.891-6.508,22.859c-9.375,9.75-30.328,19.594-64.055,30.109    c-4.366,1.344-7.538,5.391-7.538,10.204c0,5.89,4.773,10.656,10.664,10.656c1.133,0,2.219-0.172,3.242-0.5    c38.273-11.922,60.812-22.938,73.07-35.688c12.766-13.266,12.594-26.938,12.453-37.906c-0.094-8.094-0.188-15.078,3.781-23.109    c7.062-14.328,17.289-18.141,30.234-22.984c12.219-4.578,26.735-10.016,37.024-26.016c3.352,0.844,6.906,1.281,10.602,1.281    c16.469,0,35.57-8.328,51.086-23.844C257.344,126.047,263.563,91.454,246.063,73.938z M234.119,105.939    c-1.836,10.203-8.047,21.203-17.047,30.203c-10.844,10.859-24.641,17.594-36,17.594c-3.391,0-8.062-0.641-11.117-3.688    c-4.727-4.735-3.774-13.391-3.141-16.906c1.836-10.203,8.047-21.219,17.047-30.219c10.852-10.844,24.648-17.578,36.008-17.578    c3.383,0,8.062,0.641,11.109,3.688C235.712,93.767,234.751,102.424,234.119,105.939z" fill="#FFFFFF"/>
	</g>
</g>
<g>
</g>
<g>
</g>
<g>
</g>
<g>
</g>
<g>
</g>
<g>
</g>
<g>
</g>
<g>
</g>
<g>
</g>
<g>
</g>
<g>
</g>
<g>
</g>
<g>
</g>
<g>
</g>
<g>
</g>
</svg>
