<?xml version="1.0" encoding="iso-8859-1"?>
<!-- Generator: Adobe Illustrator 18.1.1, SVG Export Plug-In . SVG Version: 6.00 Build 0)  -->
<svg xmlns="http://www.w3.org/2000/svg" xmlns:xlink="http://www.w3.org/1999/xlink" version="1.1" id="Capa_1" x="0px" y="0px" viewBox="0 0 1489.639 1489.639" style="enable-background:new 0 0 1489.639 1489.639;" xml:space="preserve" width="512px" height="512px">
<g>
	<g>
		<path d="M1414.637,629.379h-57.796V389.894l-0.911-8.199c0-0.304-4.353-22.673,6.883-36.54    c11.337-13.969,36.54-16.903,55.67-16.903c20.75,0,37.451-16.802,37.451-37.451c0-20.649-16.701-37.451-37.451-37.451    c-52.128,0-90.692,15.284-114.681,45.65c-28.544,36.034-24.495,79.356-21.965,94.437V629.48H902.468L733.837,230.677    c-31.074-76.117-77.634-131.18-149.905-131.18h-365.4c-72.27,0-131.18,58.808-131.18,131.18v483.625l22.066-22.066    c29.151-29.151,68.829-44.435,109.924-43.726c27.43-29.354,66.4-47.067,109.215-47.067h75.003    c42.917,0,81.785,17.713,109.316,47.067c41.196-0.81,80.671,14.575,109.924,43.828l52.937,52.937    c29.758,29.657,44.739,70.044,43.625,110.328c29.252,27.633,47.269,66.805,47.269,108.912v68.728h235.03    c-35.629,37.957-57.594,88.769-57.594,144.845c0,116.807,95.045,212.054,212.054,212.054    c116.807,0,212.054-95.146,212.054-212.054c0-56.48-22.37-107.596-58.201-145.553c41.804-3.442,104.762-35.224,104.762-74.092    l74.902-253.958C1489.539,662.882,1455.934,629.379,1414.637,629.379z M201.224,538.282V273.088    c0-47.978,39.071-86.947,86.947-86.947h242.217c47.877,0,78.85,36.439,99.397,86.947L741.53,539.294L201.224,538.282z     M1156.022,1277.586c-54.861,0-99.599-44.637-99.599-99.498c0-54.962,44.739-99.6,99.599-99.6c54.86,0,99.499,44.637,99.499,99.6    C1255.621,1232.846,1210.883,1277.586,1156.022,1277.586z" fill="#FFFFFF"/>
		<path d="M632.619,804.488l-47.168-47.168c-26.013-26.114-61.238-39.779-97.98-39.071    c-24.495-26.114-59.112-41.905-97.373-41.905h-66.703c-38.16,0-72.877,15.79-97.272,41.905    c-36.54-0.709-71.966,12.956-97.98,39.071l-47.269,47.168c-27.025,27.127-40.488,62.857-39.172,98.79    C15.891,927.873,0,962.592,0,999.84v66.703c0,37.249,15.891,71.967,41.703,96.664c-1.215,35.831,12.146,71.562,39.172,98.689    l47.168,47.168c26.013,26.114,61.44,40.184,97.98,39.071c24.495,26.216,59.112,42.006,97.272,42.006h66.703    c38.16,0,72.877-15.79,97.373-42.006c36.742,1.215,71.966-12.956,97.98-39.071l47.168-47.168    c26.519-26.418,39.779-62.452,38.868-98.284c26.013-24.697,42.107-59.517,42.107-97.069V999.84    c0-37.552-16.094-72.27-42.107-96.968C672.398,866.94,659.037,831.007,632.619,804.488z M356.696,1256.532    c-123.082,0-223.289-100.207-223.289-223.289s100.206-223.29,223.289-223.29s223.289,100.206,223.289,223.29    S479.778,1256.532,356.696,1256.532z" fill="#FFFFFF"/>
		<circle cx="356.696" cy="1033.242" r="123.082" fill="#FFFFFF"/>
	</g>
</g>
<g>
</g>
<g>
</g>
<g>
</g>
<g>
</g>
<g>
</g>
<g>
</g>
<g>
</g>
<g>
</g>
<g>
</g>
<g>
</g>
<g>
</g>
<g>
</g>
<g>
</g>
<g>
</g>
<g>
</g>
</svg>
