<?xml version="1.0" encoding="iso-8859-1"?>
<!-- Generator: Adobe Illustrator 17.1.0, SVG Export Plug-In . SVG Version: 6.00 Build 0)  -->
<!DOCTYPE svg PUBLIC "-//W3C//DTD SVG 1.1//EN" "http://www.w3.org/Graphics/SVG/1.1/DTD/svg11.dtd">
<svg xmlns="http://www.w3.org/2000/svg" xmlns:xlink="http://www.w3.org/1999/xlink" version="1.1" id="Capa_1" x="0px" y="0px" viewBox="0 0 470 470" style="enable-background:new 0 0 470 470;" xml:space="preserve" width="512px" height="512px">
<g>
	<path d="M398.678,68.293c-4.143,0-7.5,3.357-7.5,7.5v60.092L362.5,165.046V75.793c0-4.143-3.357-7.5-7.5-7.5s-7.5,3.357-7.5,7.5   v89.253l-28.679-29.161V75.793c0-4.143-3.357-7.5-7.5-7.5s-7.5,3.357-7.5,7.5v264.719c0,1.968,0.773,3.856,2.152,5.259   l41.526,42.225V462.5c0,4.143,3.357,7.5,7.5,7.5s7.5-3.357,7.5-7.5v-74.505l41.525-42.224c1.379-1.402,2.152-3.291,2.152-5.259   V75.793C406.178,71.65,402.821,68.293,398.678,68.293z M391.178,270.255L362.5,299.417v-8.863c0-4.142-3.356-7.499-7.498-7.5   c-4.145,0-7.502,3.357-7.502,7.5v8.863l-28.679-29.162v-45.792l28.679,29.161v6.93c0,4.143,3.357,7.5,7.5,7.5   c4.144-0.001,7.5-3.358,7.5-7.5v-6.93l28.678-29.161V270.255z M391.178,203.07L362.5,232.231v-45.793l28.678-29.161V203.07z    M347.5,232.231l-28.679-29.161v-45.793l28.679,29.161V232.231z M318.822,291.648l28.679,29.161v45.793l-28.679-29.161V291.648z    M362.5,320.809l28.678-29.161v45.793L362.5,366.602V320.809z" fill="#FFFFFF"/>
	<path d="M158.678,68.293c-4.142,0-7.5,3.357-7.5,7.5v60.092L122.5,165.046V75.793c0-4.143-3.358-7.5-7.5-7.5s-7.5,3.357-7.5,7.5   v89.253l-28.678-29.16V75.793c0-4.143-3.358-7.5-7.5-7.5s-7.5,3.357-7.5,7.5v264.719c0,1.968,0.773,3.856,2.153,5.259   l41.525,42.224V462.5c0,4.143,3.358,7.5,7.5,7.5s7.5-3.357,7.5-7.5v-74.505l41.525-42.224c1.38-1.402,2.153-3.291,2.153-5.259   V75.793C166.178,71.65,162.82,68.293,158.678,68.293z M115.003,350.239c-4.145,0-7.503,3.357-7.503,7.5v8.863l-28.678-29.161   v-45.793l28.678,29.161v6.93c0,4.143,3.358,7.5,7.5,7.5c4.144-0.002,7.5-3.358,7.5-7.5v-6.93l28.678-29.161v45.793L122.5,366.602   v-8.863C122.5,353.598,119.143,350.241,115.003,350.239z M151.178,270.255L122.5,299.417v-45.793l28.678-29.161V270.255z    M78.822,224.463l28.678,29.161v45.793l-28.678-29.161V224.463z M151.178,203.071L122.5,232.231v-45.793l28.678-29.161V203.071z    M107.5,232.231l-28.678-29.16v-45.794l28.678,29.161V232.231z" fill="#FFFFFF"/>
	<path d="M278.678,0c-4.143,0-7.5,3.357-7.5,7.5v60.092L242.5,96.752V7.5c0-4.143-3.358-7.5-7.5-7.5s-7.5,3.357-7.5,7.5v89.253   l-28.678-29.16V7.5c0-4.143-3.358-7.5-7.5-7.5s-7.5,3.357-7.5,7.5v264.719c0,1.968,0.773,3.856,2.153,5.259l41.525,42.224V462.5   c0,4.143,3.358,7.5,7.5,7.5s7.5-3.357,7.5-7.5V319.701l41.525-42.224c1.379-1.402,2.152-3.291,2.152-5.259V7.5   C286.178,3.357,282.821,0,278.678,0z M235,132.575c4.144-0.002,7.5-3.358,7.5-7.5v-6.931l28.678-29.16v45.793l-28.678,29.16v-8.863   c0-4.142-3.357-7.498-7.498-7.5c-4.145,0-7.503,3.357-7.503,7.5v8.863l-28.678-29.16V88.984l28.678,29.161v6.93   C227.5,129.218,230.858,132.575,235,132.575z M271.178,201.963l-28.678,29.16V185.33l28.678-29.16V201.963z M198.822,156.17   L227.5,185.33v45.793l-28.678-29.16V156.17z M198.822,223.355l28.678,29.161v45.793l-28.678-29.161V223.355z M242.5,252.516   l28.678-29.16v45.793l-28.678,29.16V252.516z" fill="#FFFFFF"/>
</g>
<g>
</g>
<g>
</g>
<g>
</g>
<g>
</g>
<g>
</g>
<g>
</g>
<g>
</g>
<g>
</g>
<g>
</g>
<g>
</g>
<g>
</g>
<g>
</g>
<g>
</g>
<g>
</g>
<g>
</g>
</svg>
